<svg xmlns="http://www.w3.org/2000/svg" viewBox="0 0 36 36">
  <!-- Goose emoji - simple representation -->
  <path fill="#FFDC5D" d="M18 0c-9.941 0-18 8.059-18 18s8.059 18 18 18 18-8.059 18-18S27.941 0 18 0z"/>
  <path fill="#FFF" d="M24 12c0-3.314-2.686-6-6-6s-6 2.686-6 6c0 1.657.673 3.157 1.757 4.243L12 20h12l-1.757-3.757C23.327 15.157 24 13.657 24 12z"/>
  <path fill="#FF9500" d="M18 18c-1.1 0-2-.9-2-2s.9-2 2-2 2 .9 2 2-.9 2-2 2zm0-2.5c-.276 0-.5.224-.5.5s.224.5.5.5.5-.224.5-.5-.224-.5-.5-.5z"/>
  <path fill="#292F33" d="M15 11c-.552 0-1-.448-1-1s.448-1 1-1 1 .448 1 1-.448 1-1 1zm6 0c-.552 0-1-.448-1-1s.448-1 1-1 1 .448 1 1-.448 1-1 1z"/>
  <path fill="#FF9500" d="M18 19c-1.657 0-3 1.343-3 3v8h6v-8c0-1.657-1.343-3-3-3z"/>
  <path fill="#FFDC5D" d="M14 26h8v4h-8z"/>
</svg>
