<svg xmlns="http://www.w3.org/2000/svg" viewBox="0 0 36 36">
  <!-- Donkey emoji - simple representation -->
  <path fill="#A0522D" d="M18 0c-9.941 0-18 8.059-18 18s8.059 18 18 18 18-8.059 18-18S27.941 0 18 0z"/>
  <path fill="#8B7355" d="M24 8c0-3.314-2.686-6-6-6s-6 2.686-6 6c0 1.657.673 3.157 1.757 4.243L12 16h12l-1.757-3.757C23.327 11.157 24 9.657 24 8z"/>
  <ellipse fill="#F4E3CF" cx="18" cy="14" rx="5" ry="4"/>
  <path fill="#292F33" d="M15 10c-.552 0-1-.448-1-1s.448-1 1-1 1 .448 1 1-.448 1-1 1zm6 0c-.552 0-1-.448-1-1s.448-1 1-1 1 .448 1 1-.448 1-1 1z"/>
  <path fill="#A0522D" d="M18 18c-1.657 0-3 1.343-3 3v10h6V21c0-1.657-1.343-3-3-3z"/>
  <path fill="#5C4033" d="M14 28h8v4h-8z"/>
  <!-- Ears -->
  <ellipse fill="#A0522D" cx="12" cy="6" rx="2" ry="4"/>
  <ellipse fill="#A0522D" cx="24" cy="6" rx="2" ry="4"/>
</svg>
