<svg xmlns="http://www.w3.org/2000/svg" viewBox="0 0 36 36">
  <!-- X/Cross symbol -->
  <path fill="#DD2E44" d="M21.533 18.002l13.56-13.56c.975-.974.975-2.554 0-3.528-.973-.975-2.551-.975-3.525 0L18.002 14.475 4.441.914C3.468-.06 1.888-.06.914.914c-.975.974-.975 2.553 0 3.528l13.561 13.56-13.561 13.561c-.975.974-.975 2.553 0 3.527.488.488 1.128.731 1.768.731s1.28-.243 1.768-.731l13.561-13.561 13.561 13.561c.488.488 1.128.731 1.768.731s1.279-.243 1.768-.731c.975-.974.975-2.553 0-3.527L21.533 18.002z"/>
</svg>
